<svg xmlns="http://www.w3.org/2000/svg" viewBox="2 -21 19.91 18">
	<path d="M 16.08 -18 C 16.08 -17.24 16.38 -16.56 16.85 -16.04 L 12.7 -8.91 C 12.47 -8.96 12.24 -9 12 -9 S 11.53 -8.96 11.3 -8.91 L 7.19 -15.96 C 7.69 -16.5 8 -17.21 8 -18 C 8 -19.66 6.66 -21 5 -21 S 2 -19.66 2 -18 S 3.34 -15 5 -15 C 5.24 -15 5.47 -15.04 5.7 -15.09 L 9.81 -8.04 C 9.31 -7.5 9 -6.79 9 -6 C 9 -4.34 10.34 -3 12 -3 S 15 -4.34 15 -6 C 15 -6.79 14.69 -7.5 14.19 -8.04 L 18.34 -15.16 C 18.55 -15.11 18.77 -15.08 19 -15.08 C 20.61 -15.08 21.91 -16.39 21.91 -18 S 20.61 -20.92 19 -20.92 C 17.39 -20.92 16.08 -19.61 16.08 -18 M 4 -18 C 4 -18.55 4.45 -19 5 -19 S 6 -18.55 6 -18 S 5.55 -17 5 -17 S 4 -17.45 4 -18 M 13 -6 C 13 -5.45 12.55 -5 12 -5 S 11 -5.45 11 -6 S 11.45 -7 12 -7 S 13 -6.55 13 -6 M 20 -18 C 20 -17.45 19.55 -17 19 -17 S 18 -17.45 18 -18 S 18.45 -19 19 -19 S 20 -18.55 20 -18 Z" fill="#000000"/>
</svg>